<svg width="45" height="45" viewBox="0 0 45 45" fill="none" xmlns="http://www.w3.org/2000/svg">
<path fill-rule="evenodd" clip-rule="evenodd" d="M42.1875 0H2.8125C1.2592 0 0 1.42654 0 3.18627C0 4.94599 1.2592 6.37253 2.8125 6.37253H42.1875C43.7408 6.37253 45 4.94599 45 3.18627C45 1.42654 43.7408 0 42.1875 0ZM42.1875 19.1181H2.8125C1.2592 19.1181 0 20.5446 0 22.3044C0 24.0641 1.2592 25.4906 2.8125 25.4906H42.1875C43.7408 25.4906 45 24.0641 45 22.3044C45 20.5446 43.7408 19.1181 42.1875 19.1181ZM2.8125 38.2353H42.1875C43.7408 38.2353 45 39.6619 45 41.4216C45 43.1813 43.7408 44.6079 42.1875 44.6079H2.8125C1.2592 44.6079 0 43.1813 0 41.4216C0 39.6619 1.2592 38.2353 2.8125 38.2353Z" fill="#373867"/>
</svg>