<svg width="92" height="90" viewBox="0 0 92 90" fill="none" xmlns="http://www.w3.org/2000/svg">
<rect x="1.02344" y="1.7168" width="89.6811" height="86.9053" rx="4" fill="white" stroke="#AACE9B" stroke-width="2"/>
<path fill-rule="evenodd" clip-rule="evenodd" d="M45.864 61.8395C36.3701 61.8395 28.6738 54.3762 28.6738 45.1697C28.6738 35.9633 36.3701 28.5 45.864 28.5C55.3579 28.5 63.0542 35.9633 63.0542 45.1697C63.0542 54.3762 55.3579 61.8395 45.864 61.8395ZM45.864 58.8086C53.6317 58.8086 59.9287 52.7022 59.9287 45.1697C59.9287 37.6371 53.6317 31.5308 45.864 31.5308C38.0963 31.5308 31.7993 37.6371 31.7993 45.1697C31.7993 52.7022 38.0963 58.8086 45.864 58.8086ZM45.8638 34.5618C46.7268 34.5618 47.4265 35.2402 47.4265 36.0772V44.5421L51.657 48.6445C52.2673 49.2363 52.2673 50.1958 51.657 50.7877C51.0467 51.3795 50.0573 51.3795 49.447 50.7877L44.7587 46.2414C44.4657 45.9572 44.301 45.5717 44.301 45.1698V36.0772C44.301 35.2402 45.0007 34.5618 45.8638 34.5618Z" fill="#AACE9B"/>
<mask id="mask0_812_14069" style="mask-type:alpha" maskUnits="userSpaceOnUse" x="28" y="28" width="36" height="34">
<path fill-rule="evenodd" clip-rule="evenodd" d="M45.864 61.8395C36.3701 61.8395 28.6738 54.3762 28.6738 45.1697C28.6738 35.9633 36.3701 28.5 45.864 28.5C55.3579 28.5 63.0542 35.9633 63.0542 45.1697C63.0542 54.3762 55.3579 61.8395 45.864 61.8395ZM45.864 58.8086C53.6317 58.8086 59.9287 52.7022 59.9287 45.1697C59.9287 37.6371 53.6317 31.5308 45.864 31.5308C38.0963 31.5308 31.7993 37.6371 31.7993 45.1697C31.7993 52.7022 38.0963 58.8086 45.864 58.8086ZM45.8638 34.5618C46.7268 34.5618 47.4265 35.2402 47.4265 36.0772V44.5421L51.657 48.6445C52.2673 49.2363 52.2673 50.1958 51.657 50.7877C51.0467 51.3795 50.0573 51.3795 49.447 50.7877L44.7587 46.2414C44.4657 45.9572 44.301 45.5717 44.301 45.1698V36.0772C44.301 35.2402 45.0007 34.5618 45.8638 34.5618Z" fill="white"/>
</mask>
<g mask="url(#mask0_812_14069)">
<rect x="27.1113" y="26.9844" width="37.5059" height="36.3704" fill="#AACE9B"/>
</g>
</svg>
