<svg width="92" height="90" viewBox="0 0 92 90" fill="none" xmlns="http://www.w3.org/2000/svg">
<rect x="1.20703" y="1.30078" width="89.6811" height="86.9053" rx="4" fill="white" stroke="#AACE9B" stroke-width="2"/>
<path d="M62.0911 58.0897C62.0911 58.0897 64.3832 58.0897 64.3832 55.8671C64.3832 53.6445 62.0911 46.9766 52.923 46.9766C43.7549 46.9766 41.4629 53.6445 41.4629 55.8671C41.4629 58.0897 43.7549 58.0897 43.7549 58.0897H62.0911ZM43.8061 55.8671C43.7982 55.8662 43.7871 55.8648 43.7736 55.8626C43.7672 55.8616 43.761 55.8605 43.7549 55.8594C43.7583 55.2725 44.1374 53.5709 45.4952 52.0348C46.7651 50.598 48.9869 49.1992 52.923 49.1992C56.8592 49.1992 59.0809 50.598 60.3509 52.0348C61.7087 53.5709 62.0878 55.2725 62.0911 55.8594C62.085 55.8605 62.0788 55.8616 62.0725 55.8626C62.059 55.8648 62.0479 55.8662 62.0399 55.8671H43.8061Z" fill="#AACE9B"/>
<path d="M52.923 42.5311C55.4547 42.5311 57.507 40.5409 57.507 38.0859C57.507 35.6308 55.4547 33.6406 52.923 33.6406C50.3913 33.6406 48.3389 35.6308 48.3389 38.0859C48.3389 40.5409 50.3913 42.5311 52.923 42.5311ZM59.799 38.0859C59.799 41.7684 56.7205 44.7538 52.923 44.7538C49.1254 44.7538 46.0469 41.7684 46.0469 38.0859C46.0469 34.4033 49.1254 31.418 52.923 31.418C56.7205 31.418 59.799 34.4033 59.799 38.0859Z" fill="#AACE9B"/>
<path d="M43.6083 47.5988C42.7653 47.3373 41.8288 47.1472 40.7899 47.05C40.2757 47.0019 39.7365 46.9766 39.1711 46.9766C30.003 46.9766 27.7109 53.6445 27.7109 55.8671C27.7109 57.3488 28.4749 58.0897 30.003 58.0897H39.667C39.3443 57.4583 39.1711 56.7098 39.1711 55.8671C39.1711 53.6216 40.0357 51.3285 41.669 49.413C42.227 48.7585 42.8747 48.1482 43.6083 47.5988ZM38.9878 49.2002C37.6184 51.2298 36.8791 53.5437 36.8791 55.8671H30.003C30.003 55.2876 30.3794 53.5777 31.7432 52.0348C32.9933 50.6205 35.1657 49.2429 38.9878 49.2002Z" fill="#AACE9B"/>
<path d="M31.1484 39.1972C31.1484 35.5146 34.227 32.5293 38.0245 32.5293C41.8221 32.5293 44.9006 35.5146 44.9006 39.1972C44.9006 42.8798 41.8221 45.8651 38.0245 45.8651C34.227 45.8651 31.1484 42.8798 31.1484 39.1972ZM38.0245 34.7519C35.4928 34.7519 33.4405 36.7421 33.4405 39.1972C33.4405 41.6522 35.4928 43.6425 38.0245 43.6425C40.5562 43.6425 42.6086 41.6522 42.6086 39.1972C42.6086 36.7421 40.5562 34.7519 38.0245 34.7519Z" fill="#AACE9B"/>
</svg>
