<svg width="92" height="90" viewBox="0 0 92 90" fill="none" xmlns="http://www.w3.org/2000/svg">
<rect x="1.20703" y="1.46387" width="89.6811" height="86.9053" rx="4" fill="white" stroke="#AACE9B" stroke-width="2"/>
<path d="M37.4429 46.4024V56.004C37.4429 56.4284 37.2615 56.8355 36.9387 57.1356C36.6158 57.4357 36.178 57.6043 35.7214 57.6043C35.2649 57.6043 34.827 57.4357 34.5042 57.1356C34.1814 56.8355 34 56.4284 34 56.004V46.4024C34 45.978 34.1814 45.571 34.5042 45.2708C34.827 44.9707 35.2649 44.8021 35.7214 44.8021C36.178 44.8021 36.6158 44.9707 36.9387 45.2708C37.2615 45.571 37.4429 45.978 37.4429 46.4024ZM56.3787 57.6043C56.8353 57.6043 57.2731 57.4357 57.596 57.1356C57.9188 56.8355 58.1002 56.4284 58.1002 56.004V33.6003C58.1002 33.1758 57.9188 32.7688 57.596 32.4687C57.2731 32.1686 56.8353 32 56.3787 32C55.9222 32 55.4843 32.1686 55.1615 32.4687C54.8387 32.7688 54.6573 33.1758 54.6573 33.6003V56.004C54.6573 56.4284 54.8387 56.8355 55.1615 57.1356C55.4843 57.4357 55.9222 57.6043 56.3787 57.6043ZM46.0501 57.6043C46.5066 57.6043 46.9445 57.4357 47.2673 57.1356C47.5902 56.8355 47.7715 56.4284 47.7715 56.004V40.0013C47.7715 39.5769 47.5902 39.1699 47.2673 38.8698C46.9445 38.5697 46.5066 38.4011 46.0501 38.4011C45.5935 38.4011 45.1557 38.5697 44.8328 38.8698C44.51 39.1699 44.3286 39.5769 44.3286 40.0013V56.004C44.3286 56.4284 44.51 56.8355 44.8328 57.1356C45.1557 57.4357 45.5935 57.6043 46.0501 57.6043Z" fill="#AACE9B"/>
</svg>
