<svg width="92" height="90" viewBox="0 0 92 90" fill="none" xmlns="http://www.w3.org/2000/svg">
<rect x="1.02344" y="1.30078" width="89.6811" height="86.9053" rx="4" fill="white" stroke="#AACE9B" stroke-width="2"/>
<path fill-rule="evenodd" clip-rule="evenodd" d="M43.625 35.7087C39.4829 35.7087 36.125 39.2158 36.125 43.542C36.125 47.8681 39.4829 51.3753 43.625 51.3753C47.7671 51.3753 51.125 47.8681 51.125 43.542C51.125 39.2158 47.7671 35.7087 43.625 35.7087ZM32.375 43.542C32.375 37.0526 37.4118 31.792 43.625 31.792C49.8382 31.792 54.875 37.0526 54.875 43.542C54.875 46.0796 54.1047 48.4294 52.7951 50.3501L59.9508 57.8239C60.683 58.5886 60.683 59.8287 59.9508 60.5934C59.2186 61.3581 58.0314 61.3581 57.2992 60.5934L50.1434 53.1196C48.3044 54.4875 46.0546 55.292 43.625 55.292C37.4118 55.292 32.375 50.0313 32.375 43.542Z" fill="#AACE9B"/>
</svg>
