<svg width="20" height="19" viewBox="0 0 20 19" fill="none" xmlns="http://www.w3.org/2000/svg">
<path fill-rule="evenodd" clip-rule="evenodd" d="M8.00001 2.53334C5.05449 2.53334 2.66667 4.80176 2.66667 7.60001C2.66667 10.3982 5.05449 12.6667 8.00001 12.6667C10.9455 12.6667 13.3334 10.3982 13.3334 7.60001C13.3334 4.80176 10.9455 2.53334 8.00001 2.53334ZM0 7.60001C0 3.40264 3.58173 0 8.00001 0C12.4183 0 16 3.40264 16 7.60001C16 9.24136 15.4523 10.7612 14.521 12.0036L19.6095 16.8377C20.1302 17.3323 20.1302 18.1344 19.6095 18.629C19.0888 19.1237 18.2446 19.1237 17.7239 18.629L12.6354 13.7949C11.3276 14.6797 9.72775 15.2 8.00001 15.2C3.58173 15.2 0 11.7974 0 7.60001Z" fill="#505168"/>
</svg>
